<mxfile host="app.diagrams.net" modified="2024-05-30T18:09:44.758Z" agent="Mozilla/5.0 (Windows NT 10.0; Win64; x64) AppleWebKit/537.36 (KHTML, like Gecko) Chrome/125.0.0.0 Safari/537.36" etag="Y8KYBZj0Xr4C9iGRmYcM" version="24.4.10" type="device">
  <diagram name="Page-1" id="XRj0qkHwvO71BLe8tJ0a">
    <mxGraphModel dx="3500" dy="1883" grid="1" gridSize="10" guides="1" tooltips="1" connect="1" arrows="1" fold="1" page="1" pageScale="1" pageWidth="850" pageHeight="1100" math="0" shadow="0">
      <root>
        <mxCell id="0" />
        <mxCell id="1" parent="0" />
        <mxCell id="55bYKUaHTr5tScbQ7HeJ-5" value="Memasukkan email dan password" style="text;html=1;align=center;verticalAlign=middle;whiteSpace=wrap;rounded=0;" parent="1" vertex="1">
          <mxGeometry x="124" y="25" width="180" height="30" as="geometry" />
        </mxCell>
        <mxCell id="55bYKUaHTr5tScbQ7HeJ-7" value="Pendaftaran&lt;div&gt;anggota&lt;/div&gt;" style="ellipse;whiteSpace=wrap;html=1;aspect=fixed;" parent="1" vertex="1">
          <mxGeometry x="356" width="130" height="130" as="geometry" />
        </mxCell>
        <mxCell id="55bYKUaHTr5tScbQ7HeJ-8" value="" style="endArrow=classic;html=1;rounded=0;" parent="1" target="55bYKUaHTr5tScbQ7HeJ-10" edge="1">
          <mxGeometry width="50" height="50" relative="1" as="geometry">
            <mxPoint x="486" y="64.77999999999997" as="sourcePoint" />
            <mxPoint x="736" y="64.77999999999997" as="targetPoint" />
            <Array as="points">
              <mxPoint x="776" y="65" />
            </Array>
          </mxGeometry>
        </mxCell>
        <mxCell id="55bYKUaHTr5tScbQ7HeJ-9" value="Data email dan password" style="text;html=1;align=center;verticalAlign=middle;whiteSpace=wrap;rounded=0;" parent="1" vertex="1">
          <mxGeometry x="561" y="25" width="100" height="30" as="geometry" />
        </mxCell>
        <mxCell id="55bYKUaHTr5tScbQ7HeJ-10" value="Anggota" style="text;html=1;align=center;verticalAlign=middle;whiteSpace=wrap;rounded=0;" parent="1" vertex="1">
          <mxGeometry x="741" y="175" width="70" height="30" as="geometry" />
        </mxCell>
        <mxCell id="55bYKUaHTr5tScbQ7HeJ-11" value="" style="endArrow=none;html=1;rounded=0;exitX=0.144;exitY=-0.027;exitDx=0;exitDy=0;exitPerimeter=0;" parent="1" edge="1">
          <mxGeometry width="50" height="50" relative="1" as="geometry">
            <mxPoint x="744.0300000000001" y="205.29000000000005" as="sourcePoint" />
            <mxPoint x="807.98" y="205.00000000000003" as="targetPoint" />
          </mxGeometry>
        </mxCell>
        <mxCell id="55bYKUaHTr5tScbQ7HeJ-12" value="" style="endArrow=none;html=1;rounded=0;exitX=0.144;exitY=-0.027;exitDx=0;exitDy=0;exitPerimeter=0;" parent="1" edge="1">
          <mxGeometry width="50" height="50" relative="1" as="geometry">
            <mxPoint x="744.0300000000001" y="180.29000000000005" as="sourcePoint" />
            <mxPoint x="807.98" y="180.00000000000003" as="targetPoint" />
          </mxGeometry>
        </mxCell>
        <mxCell id="55bYKUaHTr5tScbQ7HeJ-15" value="" style="endArrow=classic;html=1;rounded=0;exitX=0.5;exitY=0;exitDx=0;exitDy=0;entryX=0;entryY=0.5;entryDx=0;entryDy=0;" parent="1" source="55bYKUaHTr5tScbQ7HeJ-78" target="55bYKUaHTr5tScbQ7HeJ-7" edge="1">
          <mxGeometry width="50" height="50" relative="1" as="geometry">
            <mxPoint x="81" y="160" as="sourcePoint" />
            <mxPoint x="401" y="65" as="targetPoint" />
            <Array as="points">
              <mxPoint x="91" y="65" />
            </Array>
          </mxGeometry>
        </mxCell>
        <mxCell id="55bYKUaHTr5tScbQ7HeJ-78" value="Calon anggota" style="rounded=0;whiteSpace=wrap;html=1;" parent="1" vertex="1">
          <mxGeometry x="31" y="160" width="120" height="60" as="geometry" />
        </mxCell>
        <mxCell id="55bYKUaHTr5tScbQ7HeJ-79" value="" style="endArrow=none;html=1;rounded=0;" parent="1" edge="1">
          <mxGeometry width="50" height="50" relative="1" as="geometry">
            <mxPoint x="151" y="190" as="sourcePoint" />
            <mxPoint x="741" y="190" as="targetPoint" />
          </mxGeometry>
        </mxCell>
        <mxCell id="Ot8EXhZSDzmv2-QRklbF-1" value="Data email dan password yang sudah terdaftar" style="text;html=1;align=center;verticalAlign=middle;whiteSpace=wrap;rounded=0;" parent="1" vertex="1">
          <mxGeometry x="278.5" y="160" width="285" height="30" as="geometry" />
        </mxCell>
        <mxCell id="Ot8EXhZSDzmv2-QRklbF-2" value="Login" style="ellipse;whiteSpace=wrap;html=1;aspect=fixed;" parent="1" vertex="1">
          <mxGeometry x="356" y="260" width="130" height="130" as="geometry" />
        </mxCell>
        <mxCell id="Ot8EXhZSDzmv2-QRklbF-3" value="" style="endArrow=classic;html=1;rounded=0;entryX=0;entryY=0.5;entryDx=0;entryDy=0;" parent="1" edge="1">
          <mxGeometry width="50" height="50" relative="1" as="geometry">
            <mxPoint x="91" y="220" as="sourcePoint" />
            <mxPoint x="356" y="320" as="targetPoint" />
            <Array as="points">
              <mxPoint x="91" y="320" />
            </Array>
          </mxGeometry>
        </mxCell>
        <mxCell id="Ot8EXhZSDzmv2-QRklbF-4" value="Akses fasilitas Bookuku" style="rounded=0;whiteSpace=wrap;html=1;" parent="1" vertex="1">
          <mxGeometry x="721" y="290" width="120" height="60" as="geometry" />
        </mxCell>
        <mxCell id="Ot8EXhZSDzmv2-QRklbF-5" value="" style="endArrow=classic;html=1;rounded=0;entryX=0;entryY=0.5;entryDx=0;entryDy=0;" parent="1" target="Ot8EXhZSDzmv2-QRklbF-4" edge="1">
          <mxGeometry width="50" height="50" relative="1" as="geometry">
            <mxPoint x="486" y="320" as="sourcePoint" />
            <mxPoint x="692.4000000000001" y="322.20000000000005" as="targetPoint" />
          </mxGeometry>
        </mxCell>
        <mxCell id="Ot8EXhZSDzmv2-QRklbF-6" value="Memasukkan email dan password yang sudah terdaftar" style="text;html=1;align=center;verticalAlign=middle;whiteSpace=wrap;rounded=0;" parent="1" vertex="1">
          <mxGeometry x="124" y="330" width="187" height="30" as="geometry" />
        </mxCell>
        <mxCell id="Ot8EXhZSDzmv2-QRklbF-7" value="Data email dan password" style="text;html=1;align=center;verticalAlign=middle;whiteSpace=wrap;rounded=0;" parent="1" vertex="1">
          <mxGeometry x="511" y="320" width="187" height="30" as="geometry" />
        </mxCell>
        <mxCell id="Ot8EXhZSDzmv2-QRklbF-8" value="Katalog buku" style="ellipse;whiteSpace=wrap;html=1;aspect=fixed;" parent="1" vertex="1">
          <mxGeometry x="356" y="430" width="130" height="130" as="geometry" />
        </mxCell>
        <mxCell id="Ot8EXhZSDzmv2-QRklbF-9" value="Anggota" style="rounded=0;whiteSpace=wrap;html=1;" parent="1" vertex="1">
          <mxGeometry x="11" y="465" width="120" height="60" as="geometry" />
        </mxCell>
        <mxCell id="Ot8EXhZSDzmv2-QRklbF-10" value="" style="endArrow=classic;html=1;rounded=0;entryX=-0.003;entryY=0.387;entryDx=0;entryDy=0;entryPerimeter=0;exitX=1;exitY=0.25;exitDx=0;exitDy=0;" parent="1" source="Ot8EXhZSDzmv2-QRklbF-9" target="Ot8EXhZSDzmv2-QRklbF-8" edge="1">
          <mxGeometry width="50" height="50" relative="1" as="geometry">
            <mxPoint x="151" y="480" as="sourcePoint" />
            <mxPoint x="351" y="480" as="targetPoint" />
          </mxGeometry>
        </mxCell>
        <mxCell id="Ot8EXhZSDzmv2-QRklbF-11" value="" style="endArrow=classic;html=1;rounded=0;exitX=0.016;exitY=0.614;exitDx=0;exitDy=0;exitPerimeter=0;entryX=1;entryY=0.75;entryDx=0;entryDy=0;" parent="1" source="Ot8EXhZSDzmv2-QRklbF-8" target="Ot8EXhZSDzmv2-QRklbF-9" edge="1">
          <mxGeometry width="50" height="50" relative="1" as="geometry">
            <mxPoint x="351" y="510" as="sourcePoint" />
            <mxPoint x="151" y="510" as="targetPoint" />
          </mxGeometry>
        </mxCell>
        <mxCell id="Ot8EXhZSDzmv2-QRklbF-12" value="Memasukkan keyword buku yang dicari" style="text;html=1;align=center;verticalAlign=middle;whiteSpace=wrap;rounded=0;" parent="1" vertex="1">
          <mxGeometry x="139" y="450" width="217" height="30" as="geometry" />
        </mxCell>
        <mxCell id="Ot8EXhZSDzmv2-QRklbF-13" value="Informasi buku yang dicari" style="text;html=1;align=center;verticalAlign=middle;whiteSpace=wrap;rounded=0;" parent="1" vertex="1">
          <mxGeometry x="139" y="510" width="217" height="30" as="geometry" />
        </mxCell>
        <mxCell id="Ot8EXhZSDzmv2-QRklbF-14" value="- Judul buku&lt;div&gt;- Tahun Terbit&lt;/div&gt;&lt;div&gt;- Kuantitas ketersediaan buku&lt;/div&gt;&lt;div&gt;- Kategori semester&lt;/div&gt;" style="text;html=1;align=left;verticalAlign=middle;whiteSpace=wrap;rounded=0;" parent="1" vertex="1">
          <mxGeometry x="502.5" y="430" width="217" height="30" as="geometry" />
        </mxCell>
        <mxCell id="Ot8EXhZSDzmv2-QRklbF-16" value="Informasi buku" style="rounded=0;whiteSpace=wrap;html=1;" parent="1" vertex="1">
          <mxGeometry x="721" y="465" width="120" height="60" as="geometry" />
        </mxCell>
        <mxCell id="Ot8EXhZSDzmv2-QRklbF-17" value="" style="endArrow=classic;html=1;rounded=0;entryX=0;entryY=0.5;entryDx=0;entryDy=0;" parent="1" edge="1">
          <mxGeometry width="50" height="50" relative="1" as="geometry">
            <mxPoint x="487" y="494.79" as="sourcePoint" />
            <mxPoint x="722" y="494.79" as="targetPoint" />
          </mxGeometry>
        </mxCell>
        <mxCell id="Ot8EXhZSDzmv2-QRklbF-18" value="" style="endArrow=classic;html=1;rounded=0;" parent="1" edge="1">
          <mxGeometry width="50" height="50" relative="1" as="geometry">
            <mxPoint x="421" y="640" as="sourcePoint" />
            <mxPoint x="420.65999999999997" y="560" as="targetPoint" />
          </mxGeometry>
        </mxCell>
        <mxCell id="Ot8EXhZSDzmv2-QRklbF-19" value="Buku" style="text;html=1;align=center;verticalAlign=middle;whiteSpace=wrap;rounded=0;" parent="1" vertex="1">
          <mxGeometry x="391" y="640" width="60" height="30" as="geometry" />
        </mxCell>
        <mxCell id="Ot8EXhZSDzmv2-QRklbF-20" value="" style="endArrow=none;html=1;rounded=0;" parent="1" edge="1">
          <mxGeometry width="50" height="50" relative="1" as="geometry">
            <mxPoint x="391" y="640" as="sourcePoint" />
            <mxPoint x="451" y="640" as="targetPoint" />
          </mxGeometry>
        </mxCell>
        <mxCell id="Ot8EXhZSDzmv2-QRklbF-21" value="" style="endArrow=none;html=1;rounded=0;" parent="1" edge="1">
          <mxGeometry width="50" height="50" relative="1" as="geometry">
            <mxPoint x="391" y="670" as="sourcePoint" />
            <mxPoint x="451" y="670" as="targetPoint" />
          </mxGeometry>
        </mxCell>
        <mxCell id="Ot8EXhZSDzmv2-QRklbF-22" value="" style="endArrow=none;html=1;rounded=0;" parent="1" edge="1">
          <mxGeometry width="50" height="50" relative="1" as="geometry">
            <mxPoint x="391" y="700" as="sourcePoint" />
            <mxPoint x="451" y="700" as="targetPoint" />
          </mxGeometry>
        </mxCell>
        <mxCell id="Ot8EXhZSDzmv2-QRklbF-23" value="Buku" style="text;html=1;align=center;verticalAlign=middle;whiteSpace=wrap;rounded=0;" parent="1" vertex="1">
          <mxGeometry x="391" y="700" width="60" height="30" as="geometry" />
        </mxCell>
        <mxCell id="Ot8EXhZSDzmv2-QRklbF-24" value="" style="endArrow=none;html=1;rounded=0;" parent="1" edge="1">
          <mxGeometry width="50" height="50" relative="1" as="geometry">
            <mxPoint x="391" y="730" as="sourcePoint" />
            <mxPoint x="451" y="730" as="targetPoint" />
          </mxGeometry>
        </mxCell>
        <mxCell id="Ot8EXhZSDzmv2-QRklbF-25" value="" style="endArrow=classic;html=1;rounded=0;" parent="1" edge="1">
          <mxGeometry width="50" height="50" relative="1" as="geometry">
            <mxPoint x="420.90999999999997" y="810" as="sourcePoint" />
            <mxPoint x="420.56999999999994" y="730" as="targetPoint" />
          </mxGeometry>
        </mxCell>
        <mxCell id="Ot8EXhZSDzmv2-QRklbF-26" value="Pendonasian buku" style="ellipse;whiteSpace=wrap;html=1;aspect=fixed;" parent="1" vertex="1">
          <mxGeometry x="356" y="810" width="130" height="130" as="geometry" />
        </mxCell>
        <mxCell id="Ot8EXhZSDzmv2-QRklbF-27" value="" style="endArrow=classic;html=1;rounded=0;entryX=0;entryY=0.5;entryDx=0;entryDy=0;" parent="1" edge="1">
          <mxGeometry width="50" height="50" relative="1" as="geometry">
            <mxPoint x="486" y="874.78" as="sourcePoint" />
            <mxPoint x="721" y="874.78" as="targetPoint" />
          </mxGeometry>
        </mxCell>
        <mxCell id="Ot8EXhZSDzmv2-QRklbF-28" value="" style="endArrow=classic;html=1;rounded=0;exitX=0.016;exitY=0.614;exitDx=0;exitDy=0;exitPerimeter=0;entryX=1;entryY=0.75;entryDx=0;entryDy=0;" parent="1" edge="1">
          <mxGeometry width="50" height="50" relative="1" as="geometry">
            <mxPoint x="356" y="874.78" as="sourcePoint" />
            <mxPoint x="129" y="874.78" as="targetPoint" />
          </mxGeometry>
        </mxCell>
        <mxCell id="Ot8EXhZSDzmv2-QRklbF-29" value="Anggota" style="rounded=0;whiteSpace=wrap;html=1;" parent="1" vertex="1">
          <mxGeometry x="11" y="845" width="120" height="60" as="geometry" />
        </mxCell>
        <mxCell id="Ot8EXhZSDzmv2-QRklbF-30" value="Memasukkan data buku yang ingin didonasikan&amp;nbsp;" style="text;html=1;align=center;verticalAlign=middle;whiteSpace=wrap;rounded=0;" parent="1" vertex="1">
          <mxGeometry x="182.5" y="840" width="130" height="30" as="geometry" />
        </mxCell>
        <mxCell id="Ot8EXhZSDzmv2-QRklbF-31" value="Data buku yang ingin diidonasikan" style="text;html=1;align=center;verticalAlign=middle;whiteSpace=wrap;rounded=0;" parent="1" vertex="1">
          <mxGeometry x="531" y="840" width="130" height="30" as="geometry" />
        </mxCell>
        <mxCell id="Ot8EXhZSDzmv2-QRklbF-32" value="HMTI" style="rounded=0;whiteSpace=wrap;html=1;" parent="1" vertex="1">
          <mxGeometry x="721" y="845" width="120" height="60" as="geometry" />
        </mxCell>
        <mxCell id="Ot8EXhZSDzmv2-QRklbF-33" value="Data buku" style="text;html=1;align=center;verticalAlign=middle;whiteSpace=wrap;rounded=0;" parent="1" vertex="1">
          <mxGeometry x="401" y="760" width="130" height="30" as="geometry" />
        </mxCell>
        <mxCell id="Ot8EXhZSDzmv2-QRklbF-34" value="Data buku" style="text;html=1;align=center;verticalAlign=middle;whiteSpace=wrap;rounded=0;" parent="1" vertex="1">
          <mxGeometry x="401" y="580" width="130" height="30" as="geometry" />
        </mxCell>
      </root>
    </mxGraphModel>
  </diagram>
</mxfile>
